<svg xmlns="http://www.w3.org/2000/svg" viewBox="0 0 484.5 102.33"><defs><style>.cls-1{fill:#fff;}.cls-2{fill:#da291c;stroke:#da291c;}</style></defs><title>ProtectionPro Logo 009</title><g id="Layer_1" data-name="Layer 1"><path class="cls-1" d="M12.44,29.21h1.88a23.69,23.69,0,0,0,4.18-.3,7.84,7.84,0,0,0,2.88-1.14,4.52,4.52,0,0,0,1.79-2.4,11.89,11.89,0,0,0,.55-3.95,22.45,22.45,0,0,0-.41-4.74,6.19,6.19,0,0,0-1.52-3,5.72,5.72,0,0,0-2.85-1.59,19.1,19.1,0,0,0-4.62-.45H12.44ZM4.92,60.39V5.83H18.08q13.16,0,13.15,15.59,0,6.66-3.39,10.15c-2.26,2.33-5.52,3.48-9.76,3.48H12.44V60.39Z"/><path class="cls-1" d="M49.82,29.21H51.7c3.13,0,5.47-.69,7-2.06s2.35-3.61,2.35-6.71-.78-5.34-2.35-6.72-3.91-2.05-7-2.05H49.82ZM42.3,60.39V5.83h9.4q8.38,0,12.65,3.38T68.6,20.44a18,18,0,0,1-1.66,8.17A8.89,8.89,0,0,1,62,33.1l8.46,27.29H63L55.45,35.05H49.82V60.39Z"/><path class="cls-1" d="M90.89,52.07q1.52,2.48,5.48,2.47c2.64,0,4.46-.82,5.48-2.47s1.51-4.07,1.51-7.27V21.11q0-4.75-1.51-7.09t-5.48-2.35q-4,0-5.49,2.35t-1.5,7.09V44.8c0,3.2.51,5.63,1.51,7.27m5.48,8.86a16.86,16.86,0,0,1-6.8-1.24A10.42,10.42,0,0,1,85.07,56a16.09,16.09,0,0,1-2.44-5.65,33,33,0,0,1-.77-7.53V23.06a32.37,32.37,0,0,1,.77-7.49A15.63,15.63,0,0,1,85.07,10a10.18,10.18,0,0,1,4.5-3.54,17.42,17.42,0,0,1,6.8-1.19q7.69,0,11.09,4.57t3.41,13.21V42.85a32.62,32.62,0,0,1-.77,7.47A17.07,17.07,0,0,1,107.65,56a10.52,10.52,0,0,1-4.52,3.68,16.35,16.35,0,0,1-6.76,1.26"/><polygon class="cls-1" points="131.07 60.39 131.07 12.77 121.67 12.77 121.67 5.83 147.98 5.83 147.98 12.77 138.59 12.77 138.59 60.39 131.07 60.39"/><polygon class="cls-1" points="159.83 60.39 159.83 5.83 180.5 5.83 180.5 11.67 167.35 11.67 167.35 29.2 176.74 29.2 176.74 35.05 167.35 35.05 167.35 54.54 180.5 54.54 180.5 60.39 159.83 60.39"/><path class="cls-1" d="M206.89,60.93A16.46,16.46,0,0,1,201,60a11.2,11.2,0,0,1-4.14-2.7,13.34,13.34,0,0,1-2.62-4.3,23.53,23.53,0,0,1-1.42-5.49,46.92,46.92,0,0,1-.42-6.61V25.32a47,47,0,0,1,.42-6.62,24,24,0,0,1,1.42-5.5,13.19,13.19,0,0,1,2.62-4.27A11.28,11.28,0,0,1,201,6.25a18.32,18.32,0,0,1,12.19.15,10,10,0,0,1,4.28,3.32,15.79,15.79,0,0,1,2.4,5.08,29.09,29.09,0,0,1,1,6.76c0,.4,0,1,0,1.8h-7.52V21.63q0-1.62-.12-2.76a18.74,18.74,0,0,0-.32-2.36,6.92,6.92,0,0,0-.69-2A7.05,7.05,0,0,0,211.1,13a4.07,4.07,0,0,0-1.75-1,8.59,8.59,0,0,0-2.46-.32,7.31,7.31,0,0,0-3.13.62,5.17,5.17,0,0,0-2,1.55,7.09,7.09,0,0,0-1.13,2.58,19.1,19.1,0,0,0-.51,3.15c-.08,1-.12,2.3-.12,3.79V42.85a31.51,31.51,0,0,0,.17,3.53,16.41,16.41,0,0,0,.62,3.15A8.74,8.74,0,0,0,202,52.17a5.67,5.67,0,0,0,2,1.72,6.29,6.29,0,0,0,2.92.65,5.92,5.92,0,0,0,2.88-.66,5.74,5.74,0,0,0,1.9-1.71,8.33,8.33,0,0,0,1.07-2.65,17.88,17.88,0,0,0,.52-3.14c.08-1,.12-2.19.12-3.53v-2h7.52v2a34.27,34.27,0,0,1-.73,7.44,17.13,17.13,0,0,1-2.31,5.64,10.45,10.45,0,0,1-4.34,3.73,15.69,15.69,0,0,1-6.63,1.27"/><polygon class="cls-1" points="239.62 60.39 239.62 12.77 230.23 12.77 230.23 5.83 256.54 5.83 256.54 12.77 247.14 12.77 247.14 60.39 239.62 60.39"/><rect class="cls-1" x="268.75" y="5.83" width="7.53" height="54.56"/><path class="cls-1" d="M297.83,52.07q1.5,2.48,5.48,2.47c2.63,0,4.46-.82,5.47-2.47S310.3,48,310.3,44.8V21.11q0-4.75-1.5-7.09c-1-1.57-2.84-2.35-5.49-2.35s-4.49.78-5.5,2.35-1.49,3.92-1.49,7.09V44.8c0,3.2.5,5.63,1.51,7.27m5.48,8.86a16.79,16.79,0,0,1-6.8-1.24A10.57,10.57,0,0,1,292,56a15.9,15.9,0,0,1-2.43-5.65,31.86,31.86,0,0,1-.78-7.53V23.06a31.28,31.28,0,0,1,.78-7.49A15.45,15.45,0,0,1,292,10a10.32,10.32,0,0,1,4.51-3.54,17.35,17.35,0,0,1,6.8-1.19c5.12,0,8.83,1.52,11.1,4.57s3.4,7.44,3.4,13.21V42.85a32.58,32.58,0,0,1-.78,7.47A16.84,16.84,0,0,1,314.6,56a10.79,10.79,0,0,1-4.53,3.68,16.41,16.41,0,0,1-6.76,1.26"/><polygon class="cls-1" points="330.12 60.39 330.12 5.83 335.75 5.83 348.91 39.56 348.91 5.83 356.42 5.83 356.42 60.39 351.07 60.39 337.63 24.1 337.63 60.39 330.12 60.39"/><path class="cls-2" d="M380.84,29.21h1.88a24,24,0,0,0,4.19-.3,8,8,0,0,0,2.88-1.14,4.71,4.71,0,0,0,1.78-2.4,11.91,11.91,0,0,0,.54-3.95,21.89,21.89,0,0,0-.4-4.74,6.28,6.28,0,0,0-1.52-3,5.79,5.79,0,0,0-2.86-1.59,19,19,0,0,0-4.61-.45h-1.88Zm-7.51,31.18V5.83h13.14q13.17,0,13.17,15.59c0,4.44-1.14,7.82-3.39,10.15s-5.53,3.48-9.78,3.48h-5.63V60.39Z"/><path class="cls-2" d="M419.3,29.21h1.87q4.69,0,7-2.06c1.58-1.36,2.35-3.61,2.35-6.71s-.77-5.34-2.35-6.72-3.91-2.05-7-2.05H419.3Zm-7.53,31.18V5.83h9.4q8.4,0,12.65,3.38t4.27,11.23a17.88,17.88,0,0,1-1.68,8.17,8.88,8.88,0,0,1-4.9,4.49L440,60.39H432.5l-7.57-25.34H419.3V60.39Z"/><path class="cls-2" d="M458.77,52.07c1,1.65,2.85,2.47,5.48,2.47s4.48-.82,5.47-2.47,1.51-4.07,1.51-7.27V21.11c0-3.17-.49-5.53-1.49-7.09s-2.83-2.35-5.49-2.35-4.49.78-5.49,2.35-1.5,3.92-1.5,7.09V44.8c0,3.2.5,5.63,1.51,7.27m5.48,8.86a16.89,16.89,0,0,1-6.8-1.24A10.54,10.54,0,0,1,452.93,56a16.64,16.64,0,0,1-2.43-5.65,33.64,33.64,0,0,1-.75-7.53V23.06a33,33,0,0,1,.75-7.49A16.17,16.17,0,0,1,452.93,10a10.29,10.29,0,0,1,4.52-3.54,17.45,17.45,0,0,1,6.8-1.19q7.68,0,11.09,4.57t3.41,13.21V42.85a32.62,32.62,0,0,1-.77,7.47A17.07,17.07,0,0,1,475.53,56,10.52,10.52,0,0,1,471,59.67a16.35,16.35,0,0,1-6.76,1.26"/><path class="cls-1" d="M317.54,78.44h5.71a11.45,11.45,0,0,1,2.28.23,6.21,6.21,0,0,1,2,.78,4.38,4.38,0,0,1,1.42,1.42,4.06,4.06,0,0,1,.54,2.17,4.11,4.11,0,0,1-.89,2.71,4.78,4.78,0,0,1-2.39,1.52v0a4.78,4.78,0,0,1,1.68.47,4.45,4.45,0,0,1,1.35,1,4.69,4.69,0,0,1,.89,1.41,4.76,4.76,0,0,1,.31,1.74,4.65,4.65,0,0,1-.64,2.56,4.83,4.83,0,0,1-1.7,1.6,7.38,7.38,0,0,1-2.35.84,14.47,14.47,0,0,1-2.61.23h-5.58Zm2.22,7.93h3.07a11.21,11.21,0,0,0,1.55-.1,4,4,0,0,0,1.36-.44,2.57,2.57,0,0,0,1-.93,2.9,2.9,0,0,0,.37-1.57,2.64,2.64,0,0,0-.34-1.42,2.51,2.51,0,0,0-.92-.85,3.79,3.79,0,0,0-1.29-.44,9.11,9.11,0,0,0-1.47-.12h-3.31Zm0,8.73h3.76a8.13,8.13,0,0,0,1.63-.17,4.61,4.61,0,0,0,1.45-.56,3.14,3.14,0,0,0,1-1,2.82,2.82,0,0,0,.39-1.52,3.29,3.29,0,0,0-.38-1.64,3,3,0,0,0-1-1.06,4.26,4.26,0,0,0-1.42-.56,9.07,9.07,0,0,0-1.66-.15h-3.81Z"/><path class="cls-1" d="M340.47,89.1l-7-10.66h2.83l5.27,8.46L347,78.44h2.67l-7,10.66v8.06h-2.23Z"/><path class="cls-1" d="M362.83,78.44h3.3l6.35,14.68h.06l6.4-14.68h3.22V97.16h-2.22V81.45h-.05l-6.72,15.71h-1.35L365.1,81.45h-.05V97.16h-2.22Z"/><path class="cls-1" d="M394.75,78.44h2.09l8,18.72h-2.6l-1.9-4.6H391L389,97.16H386.5Zm1,2.85h-.05l-3.89,9.21h7.64Z"/><path class="cls-1" d="M408.8,78.44H416a9.75,9.75,0,0,1,1.95.21,9.27,9.27,0,0,1,2.05.67,9.44,9.44,0,0,1,2,1.21,7.8,7.8,0,0,1,1.65,1.78,8.8,8.8,0,0,1,1.14,2.41,11.25,11.25,0,0,1,0,6.16,8.8,8.8,0,0,1-1.14,2.41A7.85,7.85,0,0,1,422,95.08a9.83,9.83,0,0,1-2,1.2A9.27,9.27,0,0,1,418,97a9.75,9.75,0,0,1-1.95.21h-7.2ZM411,95.1h4.24a10.24,10.24,0,0,0,3-.42,6.42,6.42,0,0,0,2.38-1.31,6.21,6.21,0,0,0,1.58-2.26,9.73,9.73,0,0,0,0-6.62,6.21,6.21,0,0,0-1.58-2.26,6.57,6.57,0,0,0-2.38-1.31,10.24,10.24,0,0,0-3-.42H411Z"/><path class="cls-1" d="M430.6,78.44h2.22V97.16H430.6Z"/><path class="cls-1" d="M452.45,82.3a5.38,5.38,0,0,0-2.09-1.71,6.18,6.18,0,0,0-2.59-.57,6.5,6.5,0,0,0-2.87.64,7.2,7.2,0,0,0-2.27,1.7,8,8,0,0,0-1.48,2.49,8.42,8.42,0,0,0-.53,3,8.78,8.78,0,0,0,.53,3.06,7.6,7.6,0,0,0,1.47,2.46A7.13,7.13,0,0,0,444.87,95a7.21,7.21,0,0,0,6-.07A6.92,6.92,0,0,0,453.19,93l1.66,1.4a7.66,7.66,0,0,1-3.05,2.49,9.83,9.83,0,0,1-4,.79A9.55,9.55,0,0,1,444,96.9a9.12,9.12,0,0,1-3-2.05,9.26,9.26,0,0,1-2-3.11,10.31,10.31,0,0,1-.73-3.94,10.71,10.71,0,0,1,.7-3.86,9.32,9.32,0,0,1,8.83-6,9.91,9.91,0,0,1,3.66.69,6.82,6.82,0,0,1,2.95,2.25Z"/><path class="cls-1" d="M468.5,97.64a10.21,10.21,0,0,1-3.92-.74,9.2,9.2,0,0,1-5.14-5.17,11.09,11.09,0,0,1,0-7.86,9.28,9.28,0,0,1,2-3.12,9.47,9.47,0,0,1,3.1-2,10.78,10.78,0,0,1,7.85,0,9.69,9.69,0,0,1,3.1,2,9.11,9.11,0,0,1,2,3.12,10.94,10.94,0,0,1,0,7.86,9.11,9.11,0,0,1-2,3.12,9.53,9.53,0,0,1-3.1,2.05A10.23,10.23,0,0,1,468.5,97.64Zm0-2.06a7.13,7.13,0,0,0,5.35-2.28,7.59,7.59,0,0,0,1.52-2.47,8.77,8.77,0,0,0,0-6.06,7.59,7.59,0,0,0-1.52-2.47,7.25,7.25,0,0,0-2.34-1.67,7.71,7.71,0,0,0-6,0,7,7,0,0,0-2.34,1.67,7.59,7.59,0,0,0-1.52,2.47,8.77,8.77,0,0,0,0,6.06,7.59,7.59,0,0,0,1.52,2.47A7,7,0,0,0,465.5,95,7.22,7.22,0,0,0,468.5,95.58Z"/></g></svg>