<?xml version="1.0" encoding="utf-8"?>
<!-- Generator: Adobe Illustrator 22.1.0, SVG Export Plug-In . SVG Version: 6.00 Build 0)  -->
<svg version="1.1" id="PP_Logo" xmlns="http://www.w3.org/2000/svg" xmlns:xlink="http://www.w3.org/1999/xlink" x="0px" y="0px"
	 viewBox="0 0 504 108" style="enable-background:new 0 0 504 108;" xml:space="preserve">
<style type="text/css">
	.st0{fill:#FFFFFF;}
	.st1{fill:#EE3124;}
	.st2{fill:none;}
</style>
<g>
	<path class="st0" d="M14.4,31.5h1.9c1.7,0,3.1-0.1,4.2-0.3c1.1-0.2,2-0.6,2.9-1.1c0.8-0.6,1.4-1.4,1.8-2.4c0.4-1,0.5-2.4,0.5-4
		c0-1.9-0.1-3.5-0.4-4.7c-0.3-1.2-0.8-2.2-1.5-3c-0.7-0.8-1.7-1.3-2.8-1.6c-1.2-0.3-2.7-0.4-4.6-0.4h-1.9V31.5z M6.9,62.6V8.1h13.2
		c8.8,0,13.2,5.2,13.2,15.6c0,4.4-1.1,7.8-3.4,10.2c-2.3,2.3-5.5,3.5-9.8,3.5h-5.6v25.3H6.9z"/>
	<path class="st0" d="M51.8,31.5h1.9c3.1,0,5.5-0.7,7-2.1c1.6-1.4,2.3-3.6,2.3-6.7c0-3.1-0.8-5.3-2.3-6.7c-1.6-1.4-3.9-2-7-2h-1.9
		V31.5z M44.3,62.6V8.1h9.4c5.6,0,9.8,1.1,12.7,3.4c2.8,2.3,4.2,6,4.2,11.2c0,3.2-0.5,6-1.7,8.2c-1.1,2.2-2.8,3.7-4.9,4.5l8.5,27.3
		H65l-7.6-25.3h-5.6v25.3H44.3z"/>
	<path class="st0" d="M92.9,54.3c1,1.6,2.8,2.5,5.5,2.5c2.6,0,4.5-0.8,5.5-2.5c1-1.6,1.5-4.1,1.5-7.3V23.4c0-3.2-0.5-5.5-1.5-7.1
		c-1-1.6-2.8-2.3-5.5-2.3c-2.7,0-4.5,0.8-5.5,2.3c-1,1.6-1.5,3.9-1.5,7.1v23.7C91.4,50.3,91.9,52.7,92.9,54.3 M98.4,63.2
		c-2.6,0-4.9-0.4-6.8-1.2c-1.9-0.8-3.4-2-4.5-3.7c-1.1-1.6-1.9-3.5-2.4-5.6c-0.5-2.2-0.8-4.7-0.8-7.5V25.3c0-2.9,0.3-5.4,0.8-7.5
		c0.5-2.1,1.3-4,2.4-5.6c1.1-1.6,2.6-2.8,4.5-3.5c1.9-0.8,4.2-1.2,6.8-1.2c5.1,0,8.8,1.5,11.1,4.6c2.3,3,3.4,7.4,3.4,13.2v19.8
		c0,2.8-0.3,5.3-0.8,7.5c-0.5,2.2-1.3,4-2.4,5.7c-1.1,1.6-2.6,2.8-4.5,3.7C103.2,62.8,101,63.2,98.4,63.2"/>
	<polygon class="st0" points="133.1,62.6 133.1,15 123.7,15 123.7,8.1 150,8.1 150,15 140.6,15 140.6,62.6 	"/>
	<polygon class="st0" points="161.8,62.6 161.8,8.1 182.5,8.1 182.5,13.9 169.3,13.9 169.3,31.5 178.7,31.5 178.7,37.3 169.3,37.3 
		169.3,56.8 182.5,56.8 182.5,62.6 	"/>
	<path class="st0" d="M208.9,63.2c-2.2,0-4.2-0.3-5.9-1c-1.7-0.7-3.1-1.6-4.1-2.7c-1.1-1.1-1.9-2.6-2.6-4.3
		c-0.7-1.7-1.1-3.5-1.4-5.5c-0.3-2-0.4-4.2-0.4-6.6V27.6c0-2.5,0.1-4.7,0.4-6.6c0.3-1.9,0.7-3.8,1.4-5.5c0.7-1.7,1.5-3.1,2.6-4.3
		c1.1-1.1,2.5-2,4.1-2.7c1.7-0.6,3.6-1,5.9-1c2.4,0,4.6,0.4,6.3,1.1c1.8,0.8,3.2,1.9,4.3,3.3c1.1,1.5,1.9,3.2,2.4,5.1
		c0.5,1.9,0.9,4.2,1,6.8c0,0.4,0,1,0,1.8h-7.5v-1.7c0-1.1-0.1-2-0.1-2.8c0-0.8-0.2-1.5-0.3-2.4c-0.2-0.8-0.4-1.5-0.7-2
		c-0.3-0.5-0.7-1-1.1-1.5c-0.5-0.5-1-0.8-1.8-1c-0.7-0.2-1.5-0.3-2.5-0.3c-1.2,0-2.3,0.2-3.1,0.6c-0.9,0.4-1.6,0.9-2,1.6
		c-0.5,0.6-0.9,1.5-1.1,2.6c-0.3,1.1-0.4,2.1-0.5,3.1c-0.1,1-0.1,2.3-0.1,3.8v19.5c0,1.3,0.1,2.5,0.2,3.5c0.1,1.1,0.3,2.1,0.6,3.2
		c0.3,1,0.7,1.9,1.2,2.6c0.5,0.7,1.2,1.3,2,1.7c0.8,0.4,1.8,0.7,2.9,0.7c1.1,0,2.1-0.2,2.9-0.7c0.8-0.5,1.4-1,1.9-1.7
		c0.4-0.7,0.8-1.6,1.1-2.6c0.3-1.1,0.4-2.1,0.5-3.1c0.1-1,0.1-2.2,0.1-3.5v-2h7.5v2c0,2.8-0.3,5.3-0.7,7.4c-0.5,2.1-1.2,4-2.3,5.6
		c-1.1,1.6-2.5,2.9-4.3,3.7C213.7,62.8,211.5,63.2,208.9,63.2"/>
	<polygon class="st0" points="241.6,62.6 241.6,15 232.2,15 232.2,8.1 258.5,8.1 258.5,15 249.1,15 249.1,62.6 	"/>
	<rect x="270.8" y="8.1" class="st0" width="7.5" height="54.6"/>
	<path class="st0" d="M299.8,54.3c1,1.6,2.8,2.5,5.5,2.5c2.6,0,4.5-0.8,5.5-2.5c1-1.6,1.5-4.1,1.5-7.3V23.4c0-3.2-0.5-5.5-1.5-7.1
		c-1-1.6-2.8-2.3-5.5-2.3c-2.7,0-4.5,0.8-5.5,2.3c-1,1.6-1.5,3.9-1.5,7.1v23.7C298.3,50.3,298.8,52.7,299.8,54.3 M305.3,63.2
		c-2.6,0-4.9-0.4-6.8-1.2c-1.9-0.8-3.4-2-4.5-3.7c-1.1-1.6-1.9-3.5-2.4-5.6c-0.5-2.2-0.8-4.7-0.8-7.5V25.3c0-2.9,0.3-5.4,0.8-7.5
		c0.5-2.1,1.3-4,2.4-5.6c1.1-1.6,2.6-2.8,4.5-3.5c1.9-0.8,4.2-1.2,6.8-1.2c5.1,0,8.8,1.5,11.1,4.6c2.3,3,3.4,7.4,3.4,13.2v19.8
		c0,2.8-0.3,5.3-0.8,7.5c-0.5,2.2-1.3,4-2.4,5.7c-1.1,1.6-2.6,2.8-4.5,3.7C310.2,62.8,307.9,63.2,305.3,63.2"/>
	<polygon class="st0" points="332.1,62.6 332.1,8.1 337.7,8.1 350.9,41.8 350.9,8.1 358.4,8.1 358.4,62.6 353.1,62.6 339.6,26.4 
		339.6,62.6 	"/>
	<path class="st1" d="M388.5,7.6h-13.6v55.6h8.5V37.8h5.1c4.4,0,7.8-1.2,10.1-3.6c2.3-2.4,3.5-6,3.5-10.5
		C402.1,13,397.5,7.6,388.5,7.6 M393.6,23.7c0,1.6-0.2,2.8-0.5,3.8c-0.3,0.9-0.9,1.6-1.6,2.1c-0.8,0.5-1.7,0.9-2.7,1.1
		c-1,0.2-2.4,0.3-4.1,0.3h-1.4V14.4h1.4c1.9,0,3.4,0.1,4.5,0.4c1.1,0.3,1.9,0.7,2.6,1.5c0.7,0.7,1.1,1.6,1.4,2.7
		C393.5,20.2,393.6,21.7,393.6,23.7"/>
	<path class="st1" d="M438.9,31.1c1.2-2.3,1.7-5.1,1.7-8.4c0-5.4-1.5-9.3-4.5-11.6c-2.9-2.3-7.3-3.5-13-3.5h-9.9v55.6h8.5V37.8h4.8
		l7.5,25l0.1,0.4h8.5l-8.5-27.5C436.2,34.8,437.8,33.2,438.9,31.1 M432.1,22.7c0,2.9-0.7,5.1-2.2,6.3c-1.5,1.3-3.7,1.9-6.7,1.9h-1.4
		V14.4h1.4c3,0,5.3,0.6,6.7,1.9C431.3,17.6,432.1,19.8,432.1,22.7"/>
	<path class="st1" d="M477.7,11.8c-2.4-3.2-6.2-4.8-11.5-4.8c-2.7,0-5.1,0.4-7,1.2c-2,0.8-3.6,2.1-4.7,3.7c-1.1,1.6-2,3.5-2.5,5.7
		c-0.5,2.2-0.8,4.7-0.8,7.6v19.8c0,2.9,0.3,5.4,0.8,7.6c0.5,2.3,1.4,4.2,2.5,5.8c1.2,1.7,2.8,3,4.7,3.8c1.9,0.9,4.3,1.3,7,1.3
		c2.7,0,5-0.4,7-1.3c2-0.9,3.6-2.2,4.7-3.9c1.1-1.7,2-3.6,2.5-5.8c0.5-2.2,0.8-4.8,0.8-7.6V25.3C481.3,19.5,480.1,14.9,477.7,11.8
		 M466.3,56.3c-2.4,0-4.1-0.8-5.1-2.2l0,0c-1-1.5-1.4-3.9-1.4-7V23.4c0-3.1,0.5-5.4,1.4-6.8c0.9-1.4,2.6-2.1,5.1-2.1
		c2.5,0,4.2,0.7,5.1,2.1c0.9,1.5,1.4,3.8,1.4,6.8v23.7c0,3.1-0.5,5.5-1.4,7C470.4,55.5,468.7,56.3,466.3,56.3"/>
	<path class="st0" d="M319.5,80.9h5.7c0.8,0,1.5,0.1,2.3,0.2c0.7,0.2,1.4,0.4,2,0.8c0.6,0.4,1.1,0.8,1.4,1.4
		c0.4,0.6,0.5,1.3,0.5,2.2c0,1.1-0.3,2-0.9,2.7c-0.6,0.7-1.4,1.2-2.4,1.5v0.1c0.6,0.1,1.2,0.2,1.7,0.5c0.5,0.3,1,0.6,1.3,1
		c0.4,0.4,0.7,0.9,0.9,1.4c0.2,0.5,0.3,1.1,0.3,1.7c0,1-0.2,1.9-0.6,2.6c-0.4,0.7-1,1.2-1.7,1.6c-0.7,0.4-1.5,0.7-2.4,0.8
		c-0.9,0.2-1.7,0.2-2.6,0.2h-5.6V80.9z M321.8,88.8h3.1c0.5,0,1,0,1.5-0.1c0.5-0.1,1-0.2,1.4-0.4c0.4-0.2,0.7-0.5,1-0.9
		c0.2-0.4,0.4-0.9,0.4-1.6c0-0.6-0.1-1.1-0.3-1.4c-0.2-0.4-0.5-0.6-0.9-0.9c-0.4-0.2-0.8-0.4-1.3-0.4c-0.5-0.1-1-0.1-1.5-0.1h-3.3
		V88.8z M321.8,97.5h3.8c0.5,0,1.1-0.1,1.6-0.2c0.5-0.1,1-0.3,1.5-0.6c0.4-0.3,0.8-0.6,1-1c0.3-0.4,0.4-0.9,0.4-1.5
		c0-0.7-0.1-1.2-0.4-1.6c-0.3-0.4-0.6-0.8-1-1.1c-0.4-0.3-0.9-0.4-1.4-0.6c-0.5-0.1-1.1-0.2-1.7-0.2h-3.8V97.5z"/>
	<polygon class="st0" points="342.5,91.5 335.5,80.9 338.3,80.9 343.6,89.3 349,80.9 351.7,80.9 344.7,91.5 344.7,99.6 342.5,99.6 	
		"/>
	<polygon class="st0" points="364.8,80.9 368.1,80.9 374.5,95.5 374.5,95.5 380.9,80.9 384.2,80.9 384.2,99.6 381.9,99.6 
		381.9,83.9 381.9,83.9 375.2,99.6 373.8,99.6 367.1,83.9 367,83.9 367,99.6 364.8,99.6 	"/>
	<path class="st0" d="M396.8,80.9h2.1l8,18.7h-2.6l-1.9-4.6h-9.4l-1.9,4.6h-2.5L396.8,80.9z M397.8,83.7L397.8,83.7l-3.9,9.2h7.6
		L397.8,83.7z"/>
	<path class="st0" d="M410.8,80.9h7.2c0.6,0,1.3,0.1,2,0.2c0.7,0.1,1.4,0.4,2,0.7c0.7,0.3,1.3,0.7,2,1.2c0.6,0.5,1.2,1.1,1.7,1.8
		c0.5,0.7,0.9,1.5,1.1,2.4c0.3,0.9,0.4,1.9,0.4,3.1s-0.1,2.2-0.4,3.1c-0.3,0.9-0.7,1.7-1.1,2.4c-0.5,0.7-1,1.3-1.7,1.8
		c-0.6,0.5-1.3,0.9-2,1.2c-0.7,0.3-1.4,0.5-2,0.7c-0.7,0.1-1.3,0.2-2,0.2h-7.2V80.9z M413,97.5h4.2c1.1,0,2.1-0.1,3-0.4
		c0.9-0.3,1.7-0.7,2.4-1.3c0.7-0.6,1.2-1.3,1.6-2.3c0.4-0.9,0.6-2,0.6-3.3c0-1.3-0.2-2.4-0.6-3.3c-0.4-0.9-0.9-1.7-1.6-2.3
		c-0.7-0.6-1.5-1-2.4-1.3c-0.9-0.3-1.9-0.4-3-0.4H413V97.5z"/>
	<rect x="432.6" y="80.9" class="st0" width="2.2" height="18.7"/>
	<path class="st0" d="M454.4,84.7c-0.6-0.8-1.3-1.3-2.1-1.7s-1.7-0.6-2.6-0.6c-1,0-2,0.2-2.9,0.6c-0.9,0.4-1.6,1-2.3,1.7
		c-0.6,0.7-1.1,1.5-1.5,2.5c-0.4,0.9-0.5,1.9-0.5,2.9c0,1.1,0.2,2.1,0.5,3.1c0.4,0.9,0.8,1.8,1.5,2.5c0.6,0.7,1.4,1.2,2.2,1.7
		c0.9,0.4,1.8,0.6,2.9,0.6c1.1,0,2.2-0.2,3.1-0.7c0.9-0.4,1.7-1.1,2.4-1.9l1.7,1.4c-0.8,1.1-1.9,2-3.1,2.5c-1.2,0.5-2.5,0.8-4,0.8
		c-1.3,0-2.6-0.2-3.8-0.7c-1.2-0.5-2.2-1.2-3-2.1c-0.9-0.9-1.5-1.9-2-3.1c-0.5-1.2-0.7-2.5-0.7-3.9c0-1.4,0.2-2.7,0.7-3.9
		c0.5-1.2,1.1-2.2,2-3.1c0.8-0.9,1.9-1.6,3-2.1c1.2-0.5,2.4-0.8,3.8-0.8c1.3,0,2.5,0.2,3.7,0.7c1.2,0.5,2.2,1.2,2.9,2.2L454.4,84.7z
		"/>
	<path class="st0" d="M470.5,100.1c-1.4,0-2.7-0.2-3.9-0.7c-1.2-0.5-2.2-1.2-3.1-2c-0.9-0.9-1.6-1.9-2-3.1c-0.5-1.2-0.7-2.5-0.7-3.9
		c0-1.4,0.2-2.7,0.7-3.9c0.5-1.2,1.2-2.2,2-3.1c0.9-0.9,1.9-1.6,3.1-2s2.5-0.7,3.9-0.7c1.4,0,2.7,0.2,3.9,0.7c1.2,0.5,2.2,1.2,3.1,2
		c0.9,0.9,1.6,1.9,2,3.1c0.5,1.2,0.7,2.5,0.7,3.9c0,1.4-0.2,2.7-0.7,3.9c-0.5,1.2-1.2,2.2-2,3.1c-0.9,0.9-1.9,1.6-3.1,2
		C473.2,99.8,471.9,100.1,470.5,100.1 M470.5,98c1.1,0,2.1-0.2,3-0.6c0.9-0.4,1.7-1,2.3-1.7c0.7-0.7,1.2-1.5,1.5-2.5
		c0.4-0.9,0.5-2,0.5-3c0-1.1-0.2-2.1-0.5-3c-0.4-0.9-0.9-1.8-1.5-2.5c-0.7-0.7-1.4-1.3-2.3-1.7c-0.9-0.4-1.9-0.6-3-0.6
		c-1.1,0-2.1,0.2-3,0.6c-0.9,0.4-1.7,1-2.3,1.7c-0.7,0.7-1.2,1.5-1.5,2.5c-0.4,0.9-0.5,2-0.5,3c0,1.1,0.2,2.1,0.5,3
		c0.4,0.9,0.9,1.8,1.5,2.5c0.7,0.7,1.4,1.3,2.3,1.7C468.4,97.8,469.4,98,470.5,98"/>
</g>
<g>
	<path class="st2" d="M493.6,12.8c0.1-0.1,0.2-0.3,0.2-0.6c0-0.2,0-0.4-0.1-0.5c-0.1-0.1-0.2-0.2-0.3-0.3c-0.1-0.1-0.3-0.1-0.5-0.2
		c-0.2,0-0.4,0-0.5,0l-1.3,0l-0.1,2.1l1,0c0.2,0,0.5,0,0.7,0c0.2,0,0.4,0,0.6-0.1C493.4,13,493.5,12.9,493.6,12.8z"/>
	<path class="st2" d="M496.5,15.9c0.3-0.6,0.4-1.3,0.4-2c0-0.7-0.1-1.4-0.3-2c-0.2-0.6-0.6-1.2-1-1.7c-0.4-0.5-0.9-0.8-1.5-1.1
		c-0.6-0.3-1.2-0.4-1.9-0.5c-0.7,0-1.3,0.1-1.9,0.3c-0.6,0.2-1.1,0.6-1.6,1c-0.4,0.4-0.8,1-1.1,1.6c-0.3,0.6-0.4,1.3-0.4,2
		c0,0.7,0.1,1.4,0.3,2c0.2,0.6,0.6,1.2,1,1.6c0.4,0.5,0.9,0.8,1.5,1.1c0.6,0.3,1.2,0.4,1.9,0.5c0.7,0,1.3-0.1,1.9-0.3
		c0.6-0.2,1.1-0.6,1.6-1C495.9,17,496.3,16.5,496.5,15.9z M493.8,17.4L493.8,17.4l-1.8-3.1l-1,0l-0.1,3.1l-1.3,0l0.2-7.4l2.8,0.1
		c1.7,0.1,2.6,0.8,2.5,2.2c0,0.7-0.2,1.2-0.6,1.5c-0.3,0.3-0.8,0.4-1.2,0.5l2,3.2L493.8,17.4z"/>
	<path class="st1" d="M493,14c0.5,0,1-0.2,1.3-0.5c0.3-0.3,0.5-0.7,0.5-1.3c0-1.3-0.7-1.9-2.3-2l-2.6-0.1l-0.2,6.9l0.9,0l0.1-3.1
		l1.3,0l0,0.1l1.8,3.1l0.9,0l-1.9-3.2L493,14z M492,13.4l-1.2,0l0.1-2.5l1.5,0c0.2,0,0.4,0,0.6,0.1c0.2,0,0.4,0.1,0.5,0.2
		c0.2,0.1,0.3,0.2,0.4,0.4c0.1,0.2,0.2,0.4,0.1,0.6c0,0.3-0.1,0.5-0.2,0.7c-0.1,0.2-0.3,0.3-0.5,0.4c-0.2,0.1-0.4,0.1-0.6,0.1
		C492.4,13.4,492.2,13.4,492,13.4z"/>
	<path class="st1" d="M497.5,16.3c0.3-0.7,0.5-1.5,0.5-2.4c0-0.8-0.1-1.6-0.4-2.4c-0.3-0.7-0.7-1.4-1.2-1.9c-0.5-0.5-1.2-1-1.9-1.3
		c-0.7-0.3-1.5-0.5-2.3-0.5c-0.8,0-1.6,0.1-2.3,0.4c-0.7,0.3-1.4,0.7-1.9,1.2c-0.6,0.5-1,1.1-1.4,1.9c-0.3,0.7-0.5,1.5-0.5,2.4
		c0,0.9,0.1,1.7,0.4,2.4c0.3,0.7,0.7,1.4,1.2,1.9c0.5,0.5,1.2,1,1.9,1.3c0.7,0.3,1.5,0.5,2.3,0.5c0.8,0,1.6-0.1,2.3-0.4
		c0.7-0.3,1.4-0.7,1.9-1.2C496.7,17.6,497.2,17,497.5,16.3z M493.9,18.7c-0.6,0.3-1.3,0.4-2,0.4c-0.7,0-1.4-0.2-2-0.5
		c-0.6-0.3-1.2-0.7-1.6-1.2c-0.4-0.5-0.8-1.1-1-1.7c-0.2-0.7-0.4-1.4-0.3-2.1c0-0.7,0.2-1.4,0.5-2.1c0.3-0.6,0.7-1.2,1.1-1.7
		c0.5-0.5,1-0.8,1.7-1.1c0.6-0.3,1.3-0.4,2-0.4c0.7,0,1.4,0.2,2,0.5c0.6,0.3,1.1,0.7,1.6,1.2c0.4,0.5,0.8,1.1,1,1.7
		c0.2,0.7,0.4,1.4,0.3,2.1c0,0.8-0.2,1.5-0.5,2.1c-0.3,0.6-0.7,1.2-1.1,1.7C495.1,18.1,494.6,18.4,493.9,18.7z"/>
	<path class="st1" d="M494.5,13.8c0.4-0.3,0.6-0.8,0.6-1.5c0-1.4-0.8-2.2-2.5-2.2l-2.8-0.1l-0.2,7.4l1.3,0l0.1-3.1l1,0l1.8,3.1
		l0,0.1l1.4,0l-2-3.2C493.7,14.2,494.1,14,494.5,13.8z M493.9,17.2l-1.8-3.1l0-0.1l-1.3,0l-0.1,3.1l-0.9,0l0.2-6.9l2.6,0.1
		c1.6,0,2.4,0.7,2.3,2c0,0.6-0.2,1.1-0.5,1.3c-0.3,0.3-0.8,0.4-1.3,0.5l-0.2,0l1.9,3.2L493.9,17.2z"/>
	<path class="st1" d="M497.9,11.4c-0.3-0.8-0.7-1.4-1.3-2c-0.5-0.6-1.2-1-1.9-1.4c-0.7-0.3-1.5-0.5-2.4-0.5c-0.8,0-1.7,0.1-2.4,0.4
		c-0.8,0.3-1.4,0.7-2,1.2c-0.6,0.5-1.1,1.2-1.4,1.9c-0.4,0.7-0.5,1.6-0.6,2.4c0,0.9,0.1,1.7,0.4,2.5c0.3,0.8,0.7,1.4,1.3,2
		c0.5,0.6,1.2,1,1.9,1.4c0.7,0.3,1.5,0.5,2.4,0.5c0.8,0,1.7-0.1,2.4-0.4c0.8-0.3,1.4-0.7,2-1.2c0.6-0.5,1.1-1.2,1.4-1.9
		c0.4-0.7,0.5-1.6,0.6-2.5C498.3,13,498.2,12.2,497.9,11.4z M491.9,19.7c-0.8,0-1.6-0.2-2.3-0.5c-0.7-0.3-1.3-0.8-1.9-1.3
		c-0.5-0.5-0.9-1.2-1.2-1.9c-0.3-0.7-0.4-1.5-0.4-2.4c0-0.8,0.2-1.6,0.5-2.4c0.3-0.7,0.8-1.3,1.4-1.9c0.6-0.5,1.2-0.9,1.9-1.2
		c0.7-0.3,1.5-0.4,2.3-0.4c0.8,0,1.6,0.2,2.3,0.5c0.7,0.3,1.3,0.8,1.9,1.3c0.5,0.5,0.9,1.2,1.2,1.9c0.3,0.7,0.4,1.5,0.4,2.4
		c0,0.9-0.2,1.7-0.5,2.4c-0.3,0.7-0.8,1.3-1.4,1.9c-0.6,0.5-1.2,0.9-1.9,1.2C493.5,19.6,492.7,19.7,491.9,19.7z"/>
	<path class="st1" d="M493.8,12.9c0.1-0.2,0.2-0.4,0.2-0.7c0-0.3,0-0.5-0.1-0.6c-0.1-0.2-0.2-0.3-0.4-0.4c-0.2-0.1-0.3-0.1-0.5-0.2
		c-0.2,0-0.4,0-0.6-0.1l-1.5,0l-0.1,2.5l1.2,0c0.2,0,0.5,0,0.7,0c0.2,0,0.5-0.1,0.6-0.1C493.5,13.2,493.7,13.1,493.8,12.9z
		 M492,13.2l-1,0l0.1-2.1l1.3,0c0.2,0,0.4,0,0.5,0c0.2,0,0.3,0.1,0.5,0.2c0.1,0.1,0.2,0.2,0.3,0.3c0.1,0.1,0.1,0.3,0.1,0.5
		c0,0.3-0.1,0.5-0.2,0.6c-0.1,0.1-0.2,0.2-0.4,0.3c-0.2,0.1-0.4,0.1-0.6,0.1C492.4,13.2,492.2,13.2,492,13.2z"/>
	<path class="st1" d="M497.2,13.9c0-0.7-0.1-1.5-0.3-2.1c-0.2-0.7-0.6-1.2-1-1.7c-0.4-0.5-1-0.9-1.6-1.2c-0.6-0.3-1.3-0.5-2-0.5
		c-0.7,0-1.4,0.1-2,0.4c-0.6,0.3-1.2,0.6-1.7,1.1c-0.5,0.5-0.9,1-1.1,1.7c-0.3,0.6-0.4,1.3-0.5,2.1c0,0.8,0.1,1.5,0.3,2.1
		c0.2,0.7,0.6,1.2,1,1.7c0.4,0.5,1,0.9,1.6,1.2c0.6,0.3,1.3,0.5,2,0.5c0.7,0,1.4-0.1,2-0.4c0.6-0.3,1.2-0.6,1.7-1.1
		c0.5-0.5,0.9-1,1.1-1.7C497,15.3,497.2,14.6,497.2,13.9z M491.9,18.8c-0.7,0-1.3-0.2-1.9-0.5c-0.6-0.3-1.1-0.7-1.5-1.1
		c-0.4-0.5-0.8-1-1-1.6c-0.2-0.6-0.3-1.3-0.3-2c0-0.7,0.2-1.4,0.4-2c0.3-0.6,0.6-1.2,1.1-1.6c0.5-0.4,1-0.8,1.6-1
		c0.6-0.2,1.3-0.4,1.9-0.3c0.7,0,1.3,0.2,1.9,0.5c0.6,0.3,1.1,0.7,1.5,1.1c0.4,0.5,0.8,1,1,1.7c0.2,0.6,0.3,1.3,0.3,2
		c0,0.7-0.2,1.4-0.4,2c-0.3,0.6-0.6,1.1-1.1,1.6c-0.5,0.4-1,0.8-1.6,1C493.3,18.7,492.6,18.8,491.9,18.8z"/>
</g>
</svg>
